<svg width="24" height="24" viewBox="0 0 24 24" fill="none" xmlns="http://www.w3.org/2000/svg">
<g id="ChartPie">
<g id="Vector">
<path fill-rule="evenodd" clip-rule="evenodd" d="M12 3.75C7.44365 3.75 3.75 7.44365 3.75 12C3.75 16.5563 7.44365 20.25 12 20.25C16.5563 20.25 20.25 16.5563 20.25 12C20.25 7.44365 16.5563 3.75 12 3.75ZM2.25 12C2.25 6.61522 6.61522 2.25 12 2.25C17.3848 2.25 21.75 6.61522 21.75 12C21.75 17.3848 17.3848 21.75 12 21.75C6.61522 21.75 2.25 17.3848 2.25 12Z" fill="#171D35" fill-opacity="0.64"/>
<path fill-rule="evenodd" clip-rule="evenodd" d="M12 2.25C12.4142 2.25 12.75 2.58579 12.75 3V12C12.75 12.4142 12.4142 12.75 12 12.75C11.5858 12.75 11.25 12.4142 11.25 12V3C11.25 2.58579 11.5858 2.25 12 2.25Z" fill="#171D35" fill-opacity="0.64"/>
<path fill-rule="evenodd" clip-rule="evenodd" d="M20.44 7.12481C20.6472 7.48349 20.5244 7.94221 20.1657 8.14939L4.58448 17.1494C4.22581 17.3566 3.76709 17.2337 3.55991 16.8751C3.35273 16.5164 3.47555 16.0577 3.83422 15.8505L19.4155 6.8505C19.7742 6.64332 20.2329 6.76613 20.44 7.12481Z" fill="#171D35" fill-opacity="0.64"/>
</g>
</g>
</svg>
