<svg width="24" height="24" viewBox="0 0 24 24" fill="none" xmlns="http://www.w3.org/2000/svg">
<path fill-rule="evenodd" clip-rule="evenodd" d="M12 1.5C12.4142 1.5 12.75 1.83579 12.75 2.25V21.75C12.75 22.1642 12.4142 22.5 12 22.5C11.5858 22.5 11.25 22.1642 11.25 21.75V2.25C11.25 1.83579 11.5858 1.5 12 1.5Z" fill="#171D35" fill-opacity="0.64"/>
<path fill-rule="evenodd" clip-rule="evenodd" d="M6.94302 5.06802C7.78693 4.22411 8.93153 3.75 10.125 3.75H13.5C14.0909 3.75 14.6761 3.8664 15.2221 4.09254C15.768 4.31869 16.2641 4.65016 16.682 5.06802C17.0998 5.48588 17.4313 5.98196 17.6575 6.52792C17.8836 7.07389 18 7.65905 18 8.25C18 8.66421 17.6642 9 17.25 9C16.8358 9 16.5 8.66421 16.5 8.25C16.5 7.85603 16.4224 7.46593 16.2716 7.10195C16.1209 6.73797 15.8999 6.40726 15.6213 6.12868C15.3427 5.8501 15.012 5.62913 14.6481 5.47836C14.2841 5.3276 13.894 5.25 13.5 5.25H10.125C9.32935 5.25 8.56629 5.56607 8.00368 6.12868C7.44107 6.69129 7.125 7.45435 7.125 8.25C7.125 9.04565 7.44107 9.80871 8.00368 10.3713C8.56629 10.9339 9.32935 11.25 10.125 11.25H14.25C15.4435 11.25 16.5881 11.7241 17.432 12.568C18.2759 13.4119 18.75 14.5565 18.75 15.75C18.75 16.9435 18.2759 18.0881 17.432 18.932C16.5881 19.7759 15.4435 20.25 14.25 20.25H9.75C8.55653 20.25 7.41193 19.7759 6.56802 18.932C5.72411 18.0881 5.25 16.9435 5.25 15.75C5.25 15.3358 5.58579 15 6 15C6.41421 15 6.75 15.3358 6.75 15.75C6.75 16.5456 7.06607 17.3087 7.62868 17.8713C8.19129 18.4339 8.95435 18.75 9.75 18.75H14.25C15.0456 18.75 15.8087 18.4339 16.3713 17.8713C16.9339 17.3087 17.25 16.5456 17.25 15.75C17.25 14.9543 16.9339 14.1913 16.3713 13.6287C15.8087 13.0661 15.0456 12.75 14.25 12.75H10.125C8.93153 12.75 7.78693 12.2759 6.94302 11.432C6.09911 10.5881 5.625 9.44347 5.625 8.25C5.625 7.05653 6.09911 5.91193 6.94302 5.06802Z" fill="#171D35" fill-opacity="0.64"/>
</svg>
