<svg width="15" height="14" viewBox="0 0 15 14" fill="none" xmlns="http://www.w3.org/2000/svg">
<g id="delete">
<path id="Vector (Stroke)" fill-rule="evenodd" clip-rule="evenodd" d="M2.25 3.0625C2.25 2.82088 2.44588 2.625 2.6875 2.625H12.3125C12.5541 2.625 12.75 2.82088 12.75 3.0625C12.75 3.30412 12.5541 3.5 12.3125 3.5H2.6875C2.44588 3.5 2.25 3.30412 2.25 3.0625Z" fill="#FF4E3A"/>
<path id="Vector (Stroke)_2" fill-rule="evenodd" clip-rule="evenodd" d="M6.1875 5.25C6.42912 5.25 6.625 5.44588 6.625 5.6875V9.1875C6.625 9.42912 6.42912 9.625 6.1875 9.625C5.94588 9.625 5.75 9.42912 5.75 9.1875V5.6875C5.75 5.44588 5.94588 5.25 6.1875 5.25Z" fill="#FF4E3A"/>
<path id="Vector (Stroke)_3" fill-rule="evenodd" clip-rule="evenodd" d="M8.8125 5.25C9.05412 5.25 9.25 5.44588 9.25 5.6875V9.1875C9.25 9.42912 9.05412 9.625 8.8125 9.625C8.57088 9.625 8.375 9.42912 8.375 9.1875V5.6875C8.375 5.44588 8.57088 5.25 8.8125 5.25Z" fill="#FF4E3A"/>
<path id="Vector (Stroke)_4" fill-rule="evenodd" clip-rule="evenodd" d="M3.5625 2.625C3.80412 2.625 4 2.82088 4 3.0625V11.375H11V3.0625C11 2.82088 11.1959 2.625 11.4375 2.625C11.6791 2.625 11.875 2.82088 11.875 3.0625V11.375C11.875 11.6071 11.7828 11.8296 11.6187 11.9937C11.4546 12.1578 11.2321 12.25 11 12.25H4C3.76794 12.25 3.54538 12.1578 3.38128 11.9937C3.21719 11.8296 3.125 11.6071 3.125 11.375V3.0625C3.125 2.82088 3.32088 2.625 3.5625 2.625Z" fill="#FF4E3A"/>
<path id="Vector (Stroke)_5" fill-rule="evenodd" clip-rule="evenodd" d="M5.25942 1.25942C5.50556 1.01328 5.8394 0.875 6.1875 0.875H8.8125C9.1606 0.875 9.49444 1.01328 9.74058 1.25942C9.98672 1.50556 10.125 1.8394 10.125 2.1875V3.0625C10.125 3.30412 9.92912 3.5 9.6875 3.5C9.44588 3.5 9.25 3.30412 9.25 3.0625V2.1875C9.25 2.07147 9.20391 1.96019 9.12186 1.87814C9.03981 1.79609 8.92853 1.75 8.8125 1.75H6.1875C6.07147 1.75 5.96019 1.79609 5.87814 1.87814C5.79609 1.96019 5.75 2.07147 5.75 2.1875V3.0625C5.75 3.30412 5.55412 3.5 5.3125 3.5C5.07088 3.5 4.875 3.30412 4.875 3.0625V2.1875C4.875 1.8394 5.01328 1.50556 5.25942 1.25942Z" fill="#FF4E3A"/>
</g>
</svg>
