<svg width="169" height="28" viewBox="0 0 169 28" fill="none" xmlns="http://www.w3.org/2000/svg">
<g clip-path="url(#clip0_1_241)">
<path d="M13.9999 27.5037V16.1813L10.0281 18.0493V21.971C10.0281 21.971 8.61128 24.3594 6.30688 24.2599C4.00248 24.1604 3.89888 22.6797 3.97588 21.6226C4.05288 20.5656 5.03708 18.8361 7.89868 17.9283C10.7603 17.0205 14.9029 15.6273 14.9029 15.6273L14.3457 16.0132V21.3402C14.3457 22.4981 14.6117 23.6467 15.1675 24.6741C16.0159 26.2436 17.7225 27.9569 21.1315 27.9569C27.4245 27.9569 27.9999 22.4376 27.9999 21.7921V18.4622L24.2759 19.4695V21.2555C24.2759 21.7127 24.1793 22.1687 23.9665 22.5788C23.6137 23.2566 22.8675 24.0313 21.2953 24.0313C18.4995 24.0313 18.2531 21.9777 18.2531 21.0699V14.5729C18.2531 14.5729 24.3165 13.3087 26.4753 10.2882C28.6341 7.2676 28.2225 3.29354 26.3521 1.63936C24.4817 -0.0134759 20.5967 -0.649595 17.5951 0.832441C16.2609 1.49008 15.4587 2.56597 14.9799 3.55847C14.5011 4.55098 14.2855 5.60535 14.2855 6.68124V11.6532L18.2727 9.81746V6.26299C18.2727 6.26299 18.7249 3.63648 21.7265 3.63648C24.7281 3.63648 24.5629 8.1189 21.7671 9.24454C18.9713 10.3702 13.4427 12.1871 13.4427 12.1871L13.9999 11.7729V6.77942C13.9999 6.31947 13.9537 5.86222 13.8585 5.41169C13.4847 3.64589 12.1449 0.0416634 7.44088 0.0416634C3.61748 0.0416634 1.35648 2.21361 0.74048 2.98422L3.00148 5.84743C3.00148 5.84743 4.23488 3.6553 7.03068 3.6553C9.56048 3.6553 10.1135 6.59786 10.1135 7.24877V13.1527L7.13288 14.1398C7.13288 14.1398 0.0348798 15.6461 -0.000120172 22.2493C-0.0351202 28.8526 7.35268 27.9596 7.35268 27.9596C7.35268 27.9596 9.22448 27.7444 10.8919 26.561L11.3791 27.5468L13.9999 27.5037Z" fill="#2C68F4"/>
</g>
<path d="M52.6016 12.7578V14.5859H46.6641V12.7578H52.6016ZM47.3594 8.125V19.5H45.0156V8.125H47.3594ZM54.2734 8.125V19.5H51.9375V8.125H54.2734ZM55.8125 15.3594V15.1953C55.8125 14.5755 55.901 14.0052 56.0781 13.4844C56.2552 12.9583 56.513 12.5026 56.8516 12.1172C57.1901 11.7318 57.6068 11.4323 58.1016 11.2188C58.5964 11 59.1641 10.8906 59.8047 10.8906C60.4453 10.8906 61.0156 11 61.5156 11.2188C62.0156 11.4323 62.4349 11.7318 62.7734 12.1172C63.1172 12.5026 63.3776 12.9583 63.5547 13.4844C63.7318 14.0052 63.8203 14.5755 63.8203 15.1953V15.3594C63.8203 15.974 63.7318 16.5443 63.5547 17.0703C63.3776 17.5911 63.1172 18.0469 62.7734 18.4375C62.4349 18.8229 62.0182 19.1224 61.5234 19.3359C61.0286 19.5495 60.4609 19.6562 59.8203 19.6562C59.1797 19.6562 58.6094 19.5495 58.1094 19.3359C57.6146 19.1224 57.1953 18.8229 56.8516 18.4375C56.513 18.0469 56.2552 17.5911 56.0781 17.0703C55.901 16.5443 55.8125 15.974 55.8125 15.3594ZM58.0625 15.1953V15.3594C58.0625 15.7135 58.0938 16.0443 58.1562 16.3516C58.2188 16.6589 58.3177 16.9297 58.4531 17.1641C58.5938 17.3932 58.776 17.5729 59 17.7031C59.224 17.8333 59.4974 17.8984 59.8203 17.8984C60.1328 17.8984 60.401 17.8333 60.625 17.7031C60.849 17.5729 61.0286 17.3932 61.1641 17.1641C61.2995 16.9297 61.3984 16.6589 61.4609 16.3516C61.5286 16.0443 61.5625 15.7135 61.5625 15.3594V15.1953C61.5625 14.8516 61.5286 14.5286 61.4609 14.2266C61.3984 13.9193 61.2969 13.6484 61.1562 13.4141C61.0208 13.1745 60.8411 12.987 60.6172 12.8516C60.3932 12.7161 60.1224 12.6484 59.8047 12.6484C59.487 12.6484 59.2161 12.7161 58.9922 12.8516C58.7734 12.987 58.5938 13.1745 58.4531 13.4141C58.3177 13.6484 58.2188 13.9193 58.1562 14.2266C58.0938 14.5286 58.0625 14.8516 58.0625 15.1953ZM69.7734 17.1641C69.7734 17.0026 69.7266 16.8568 69.6328 16.7266C69.5391 16.5964 69.3646 16.4766 69.1094 16.3672C68.8594 16.2526 68.4974 16.1484 68.0234 16.0547C67.5964 15.9609 67.1979 15.8438 66.8281 15.7031C66.4635 15.5573 66.1458 15.3828 65.875 15.1797C65.6094 14.9766 65.401 14.737 65.25 14.4609C65.099 14.1797 65.0234 13.8594 65.0234 13.5C65.0234 13.1458 65.099 12.8125 65.25 12.5C65.4062 12.1875 65.6276 11.9115 65.9141 11.6719C66.2057 11.4271 66.5599 11.237 66.9766 11.1016C67.3984 10.9609 67.8724 10.8906 68.3984 10.8906C69.1328 10.8906 69.763 11.0078 70.2891 11.2422C70.8203 11.4766 71.2266 11.7995 71.5078 12.2109C71.7943 12.6172 71.9375 13.0807 71.9375 13.6016H69.6875C69.6875 13.3828 69.6406 13.1875 69.5469 13.0156C69.4583 12.8385 69.3177 12.7005 69.125 12.6016C68.9375 12.4974 68.6927 12.4453 68.3906 12.4453C68.1406 12.4453 67.9245 12.4896 67.7422 12.5781C67.5599 12.6615 67.4193 12.776 67.3203 12.9219C67.2266 13.0625 67.1797 13.2188 67.1797 13.3906C67.1797 13.5208 67.2057 13.638 67.2578 13.7422C67.3151 13.8411 67.4062 13.9323 67.5312 14.0156C67.6562 14.099 67.8177 14.1771 68.0156 14.25C68.2188 14.3177 68.4688 14.3802 68.7656 14.4375C69.375 14.5625 69.9193 14.7266 70.3984 14.9297C70.8776 15.1276 71.2578 15.3984 71.5391 15.7422C71.8203 16.0807 71.9609 16.526 71.9609 17.0781C71.9609 17.4531 71.8776 17.7969 71.7109 18.1094C71.5443 18.4219 71.3047 18.6953 70.9922 18.9297C70.6797 19.1589 70.3047 19.3385 69.8672 19.4688C69.4349 19.5938 68.9479 19.6562 68.4062 19.6562C67.6198 19.6562 66.9531 19.5156 66.4062 19.2344C65.8646 18.9531 65.4531 18.5964 65.1719 18.1641C64.8958 17.7266 64.7578 17.2786 64.7578 16.8203H66.8906C66.901 17.1276 66.9792 17.375 67.125 17.5625C67.276 17.75 67.4661 17.8854 67.6953 17.9688C67.9297 18.0521 68.1823 18.0938 68.4531 18.0938C68.7448 18.0938 68.987 18.0547 69.1797 17.9766C69.3724 17.8932 69.5182 17.7839 69.6172 17.6484C69.7214 17.5078 69.7734 17.3464 69.7734 17.1641ZM75.6719 12.6719V22.75H73.4219V11.0469H75.5078L75.6719 12.6719ZM81.0234 15.1797V15.3438C81.0234 15.9583 80.9505 16.5286 80.8047 17.0547C80.6641 17.5807 80.4557 18.0391 80.1797 18.4297C79.9036 18.8151 79.5599 19.1172 79.1484 19.3359C78.7422 19.5495 78.2734 19.6562 77.7422 19.6562C77.2266 19.6562 76.7786 19.5521 76.3984 19.3438C76.0182 19.1354 75.6979 18.8438 75.4375 18.4688C75.1823 18.0885 74.9766 17.6484 74.8203 17.1484C74.6641 16.6484 74.5443 16.112 74.4609 15.5391V15.1094C74.5443 14.4948 74.6641 13.9323 74.8203 13.4219C74.9766 12.9062 75.1823 12.4609 75.4375 12.0859C75.6979 11.7057 76.0156 11.4115 76.3906 11.2031C76.7708 10.9948 77.2161 10.8906 77.7266 10.8906C78.263 10.8906 78.7344 10.9922 79.1406 11.1953C79.5521 11.3984 79.8958 11.6901 80.1719 12.0703C80.4531 12.4505 80.6641 12.9036 80.8047 13.4297C80.9505 13.9557 81.0234 14.5391 81.0234 15.1797ZM78.7656 15.3438V15.1797C78.7656 14.8203 78.7344 14.4896 78.6719 14.1875C78.6146 13.8802 78.5208 13.612 78.3906 13.3828C78.2656 13.1536 78.099 12.9766 77.8906 12.8516C77.6875 12.7214 77.4401 12.6562 77.1484 12.6562C76.8411 12.6562 76.5781 12.7057 76.3594 12.8047C76.1458 12.9036 75.9714 13.0469 75.8359 13.2344C75.7005 13.4219 75.599 13.6458 75.5312 13.9062C75.4635 14.1667 75.4219 14.4609 75.4062 14.7891V15.875C75.4323 16.2604 75.5052 16.6068 75.625 16.9141C75.7448 17.2161 75.9297 17.4557 76.1797 17.6328C76.4297 17.8099 76.7578 17.8984 77.1641 17.8984C77.4609 17.8984 77.7109 17.8333 77.9141 17.7031C78.1172 17.5677 78.2812 17.3828 78.4062 17.1484C78.5365 16.9141 78.6276 16.6432 78.6797 16.3359C78.737 16.0286 78.7656 15.6979 78.7656 15.3438ZM86.3125 19.6562C85.6562 19.6562 85.0677 19.5521 84.5469 19.3438C84.026 19.1302 83.5833 18.8359 83.2188 18.4609C82.8594 18.0859 82.5833 17.651 82.3906 17.1562C82.1979 16.6562 82.1016 16.125 82.1016 15.5625V15.25C82.1016 14.6094 82.1927 14.0234 82.375 13.4922C82.5573 12.9609 82.8177 12.5 83.1562 12.1094C83.5 11.7188 83.9167 11.4193 84.4062 11.2109C84.8958 10.9974 85.4479 10.8906 86.0625 10.8906C86.6615 10.8906 87.1927 10.9896 87.6562 11.1875C88.1198 11.3854 88.5078 11.6667 88.8203 12.0312C89.138 12.3958 89.3776 12.8333 89.5391 13.3438C89.7005 13.849 89.7812 14.4115 89.7812 15.0312V15.9688H83.0625V14.4688H87.5703V14.2969C87.5703 13.9844 87.513 13.7057 87.3984 13.4609C87.2891 13.2109 87.1224 13.013 86.8984 12.8672C86.6745 12.7214 86.388 12.6484 86.0391 12.6484C85.7422 12.6484 85.487 12.7135 85.2734 12.8438C85.0599 12.974 84.8854 13.1562 84.75 13.3906C84.6198 13.625 84.5208 13.901 84.4531 14.2188C84.3906 14.5312 84.3594 14.875 84.3594 15.25V15.5625C84.3594 15.901 84.4062 16.2135 84.5 16.5C84.599 16.7865 84.737 17.0339 84.9141 17.2422C85.0964 17.4505 85.3151 17.612 85.5703 17.7266C85.8307 17.8411 86.125 17.8984 86.4531 17.8984C86.8594 17.8984 87.237 17.8203 87.5859 17.6641C87.9401 17.5026 88.2448 17.2604 88.5 16.9375L89.5938 18.125C89.4167 18.3802 89.1745 18.625 88.8672 18.8594C88.5651 19.0938 88.2005 19.2865 87.7734 19.4375C87.3464 19.5833 86.8594 19.6562 86.3125 19.6562ZM96.0547 17.6562V7.5H98.3203V19.5H96.2812L96.0547 17.6562ZM90.7109 15.375V15.2109C90.7109 14.5651 90.7839 13.9792 90.9297 13.4531C91.0755 12.9219 91.2891 12.4661 91.5703 12.0859C91.8516 11.7057 92.1979 11.4115 92.6094 11.2031C93.0208 10.9948 93.4896 10.8906 94.0156 10.8906C94.5104 10.8906 94.9427 10.9948 95.3125 11.2031C95.6875 11.4115 96.0052 11.7083 96.2656 12.0938C96.5312 12.474 96.7448 12.9245 96.9062 13.4453C97.0677 13.9609 97.1849 14.526 97.2578 15.1406V15.5C97.1849 16.0885 97.0677 16.6354 96.9062 17.1406C96.7448 17.6458 96.5312 18.0885 96.2656 18.4688C96.0052 18.8438 95.6875 19.1354 95.3125 19.3438C94.9375 19.5521 94.5 19.6562 94 19.6562C93.474 19.6562 93.0052 19.5495 92.5938 19.3359C92.1875 19.1224 91.8438 18.8229 91.5625 18.4375C91.2865 18.0521 91.0755 17.599 90.9297 17.0781C90.7839 16.5573 90.7109 15.9896 90.7109 15.375ZM92.9609 15.2109V15.375C92.9609 15.724 92.987 16.0495 93.0391 16.3516C93.0964 16.6536 93.1875 16.9219 93.3125 17.1562C93.4427 17.3854 93.6094 17.5651 93.8125 17.6953C94.0208 17.8203 94.2734 17.8828 94.5703 17.8828C94.9557 17.8828 95.2734 17.7969 95.5234 17.625C95.7734 17.4479 95.9635 17.2057 96.0938 16.8984C96.2292 16.5911 96.3073 16.237 96.3281 15.8359V14.8125C96.3125 14.4844 96.2656 14.1901 96.1875 13.9297C96.1146 13.6641 96.0052 13.4375 95.8594 13.25C95.7188 13.0625 95.5417 12.9167 95.3281 12.8125C95.1198 12.7083 94.8724 12.6562 94.5859 12.6562C94.2943 12.6562 94.0443 12.724 93.8359 12.8594C93.6276 12.9896 93.4583 13.1693 93.3281 13.3984C93.2031 13.6276 93.1094 13.8984 93.0469 14.2109C92.9896 14.5182 92.9609 14.8516 92.9609 15.2109ZM104.641 17.5938V13.8281C104.641 13.5573 104.596 13.3255 104.508 13.1328C104.419 12.9349 104.281 12.7812 104.094 12.6719C103.911 12.5625 103.674 12.5078 103.383 12.5078C103.133 12.5078 102.917 12.5521 102.734 12.6406C102.552 12.724 102.411 12.8464 102.312 13.0078C102.214 13.1641 102.164 13.349 102.164 13.5625H99.9141C99.9141 13.2031 99.9974 12.862 100.164 12.5391C100.331 12.2161 100.573 11.9323 100.891 11.6875C101.208 11.4375 101.586 11.2422 102.023 11.1016C102.466 10.9609 102.961 10.8906 103.508 10.8906C104.164 10.8906 104.747 11 105.258 11.2188C105.768 11.4375 106.169 11.7656 106.461 12.2031C106.758 12.6406 106.906 13.1875 106.906 13.8438V17.4609C106.906 17.9245 106.935 18.3047 106.992 18.6016C107.049 18.8932 107.133 19.1484 107.242 19.3672V19.5H104.969C104.859 19.2708 104.776 18.9844 104.719 18.6406C104.667 18.2917 104.641 17.9427 104.641 17.5938ZM104.938 14.3516L104.953 15.625H103.695C103.398 15.625 103.141 15.6589 102.922 15.7266C102.703 15.7943 102.523 15.8906 102.383 16.0156C102.242 16.1354 102.138 16.276 102.07 16.4375C102.008 16.599 101.977 16.776 101.977 16.9688C101.977 17.1615 102.021 17.3359 102.109 17.4922C102.198 17.6432 102.326 17.763 102.492 17.8516C102.659 17.9349 102.854 17.9766 103.078 17.9766C103.417 17.9766 103.711 17.9089 103.961 17.7734C104.211 17.638 104.404 17.4714 104.539 17.2734C104.68 17.0755 104.753 16.888 104.758 16.7109L105.352 17.6641C105.268 17.8776 105.154 18.099 105.008 18.3281C104.867 18.5573 104.688 18.7734 104.469 18.9766C104.25 19.1745 103.987 19.3385 103.68 19.4688C103.372 19.5938 103.008 19.6562 102.586 19.6562C102.049 19.6562 101.562 19.5495 101.125 19.3359C100.693 19.1172 100.349 18.8177 100.094 18.4375C99.8438 18.0521 99.7188 17.6146 99.7188 17.125C99.7188 16.6823 99.8021 16.2891 99.9688 15.9453C100.135 15.6016 100.38 15.3125 100.703 15.0781C101.031 14.8385 101.44 14.6589 101.93 14.5391C102.419 14.4141 102.987 14.3516 103.633 14.3516H104.938ZM120.398 17.6719V19.5H114.344V17.6719H120.398ZM115.109 8.125V19.5H112.766V8.125H115.109ZM119.609 12.7578V14.5391H114.344V12.7578H119.609ZM120.391 8.125V9.96094H114.344V8.125H120.391ZM124.297 17.8594L126.172 11.0469H128.523L125.672 19.5H124.25L124.297 17.8594ZM123.008 11.0469L124.891 17.8672L124.93 19.5H123.5L120.648 11.0469H123.008ZM133.312 19.6562C132.656 19.6562 132.068 19.5521 131.547 19.3438C131.026 19.1302 130.583 18.8359 130.219 18.4609C129.859 18.0859 129.583 17.651 129.391 17.1562C129.198 16.6562 129.102 16.125 129.102 15.5625V15.25C129.102 14.6094 129.193 14.0234 129.375 13.4922C129.557 12.9609 129.818 12.5 130.156 12.1094C130.5 11.7188 130.917 11.4193 131.406 11.2109C131.896 10.9974 132.448 10.8906 133.062 10.8906C133.661 10.8906 134.193 10.9896 134.656 11.1875C135.12 11.3854 135.508 11.6667 135.82 12.0312C136.138 12.3958 136.378 12.8333 136.539 13.3438C136.701 13.849 136.781 14.4115 136.781 15.0312V15.9688H130.062V14.4688H134.57V14.2969C134.57 13.9844 134.513 13.7057 134.398 13.4609C134.289 13.2109 134.122 13.013 133.898 12.8672C133.674 12.7214 133.388 12.6484 133.039 12.6484C132.742 12.6484 132.487 12.7135 132.273 12.8438C132.06 12.974 131.885 13.1562 131.75 13.3906C131.62 13.625 131.521 13.901 131.453 14.2188C131.391 14.5312 131.359 14.875 131.359 15.25V15.5625C131.359 15.901 131.406 16.2135 131.5 16.5C131.599 16.7865 131.737 17.0339 131.914 17.2422C132.096 17.4505 132.315 17.612 132.57 17.7266C132.831 17.8411 133.125 17.8984 133.453 17.8984C133.859 17.8984 134.237 17.8203 134.586 17.6641C134.94 17.5026 135.245 17.2604 135.5 16.9375L136.594 18.125C136.417 18.3802 136.174 18.625 135.867 18.8594C135.565 19.0938 135.201 19.2865 134.773 19.4375C134.346 19.5833 133.859 19.6562 133.312 19.6562ZM140.266 12.8516V19.5H138.016V11.0469H140.125L140.266 12.8516ZM139.938 14.9766H139.328C139.328 14.3516 139.409 13.7891 139.57 13.2891C139.732 12.7839 139.958 12.3542 140.25 12C140.542 11.6406 140.888 11.3672 141.289 11.1797C141.695 10.987 142.148 10.8906 142.648 10.8906C143.044 10.8906 143.406 10.9479 143.734 11.0625C144.062 11.1771 144.344 11.3594 144.578 11.6094C144.818 11.8594 145 12.1901 145.125 12.6016C145.255 13.013 145.32 13.5156 145.32 14.1094V19.5H143.055V14.1016C143.055 13.7266 143.003 13.4349 142.898 13.2266C142.794 13.0182 142.641 12.8724 142.438 12.7891C142.24 12.7005 141.995 12.6562 141.703 12.6562C141.401 12.6562 141.138 12.7161 140.914 12.8359C140.695 12.9557 140.513 13.1224 140.367 13.3359C140.227 13.5443 140.12 13.7891 140.047 14.0703C139.974 14.3516 139.938 14.6536 139.938 14.9766ZM151.172 11.0469V12.6406H146.25V11.0469H151.172ZM147.469 8.96094H149.719V16.9531C149.719 17.1979 149.75 17.3854 149.812 17.5156C149.88 17.6458 149.979 17.737 150.109 17.7891C150.24 17.8359 150.404 17.8594 150.602 17.8594C150.742 17.8594 150.867 17.8542 150.977 17.8438C151.091 17.8281 151.188 17.8125 151.266 17.7969L151.273 19.4531C151.081 19.5156 150.872 19.5651 150.648 19.6016C150.424 19.638 150.177 19.6562 149.906 19.6562C149.411 19.6562 148.979 19.5755 148.609 19.4141C148.245 19.2474 147.964 18.9818 147.766 18.6172C147.568 18.2526 147.469 17.7734 147.469 17.1797V8.96094ZM151.891 15.3594V15.1953C151.891 14.5755 151.979 14.0052 152.156 13.4844C152.333 12.9583 152.591 12.5026 152.93 12.1172C153.268 11.7318 153.685 11.4323 154.18 11.2188C154.674 11 155.242 10.8906 155.883 10.8906C156.523 10.8906 157.094 11 157.594 11.2188C158.094 11.4323 158.513 11.7318 158.852 12.1172C159.195 12.5026 159.456 12.9583 159.633 13.4844C159.81 14.0052 159.898 14.5755 159.898 15.1953V15.3594C159.898 15.974 159.81 16.5443 159.633 17.0703C159.456 17.5911 159.195 18.0469 158.852 18.4375C158.513 18.8229 158.096 19.1224 157.602 19.3359C157.107 19.5495 156.539 19.6562 155.898 19.6562C155.258 19.6562 154.688 19.5495 154.188 19.3359C153.693 19.1224 153.273 18.8229 152.93 18.4375C152.591 18.0469 152.333 17.5911 152.156 17.0703C151.979 16.5443 151.891 15.974 151.891 15.3594ZM154.141 15.1953V15.3594C154.141 15.7135 154.172 16.0443 154.234 16.3516C154.297 16.6589 154.396 16.9297 154.531 17.1641C154.672 17.3932 154.854 17.5729 155.078 17.7031C155.302 17.8333 155.576 17.8984 155.898 17.8984C156.211 17.8984 156.479 17.8333 156.703 17.7031C156.927 17.5729 157.107 17.3932 157.242 17.1641C157.378 16.9297 157.477 16.6589 157.539 16.3516C157.607 16.0443 157.641 15.7135 157.641 15.3594V15.1953C157.641 14.8516 157.607 14.5286 157.539 14.2266C157.477 13.9193 157.375 13.6484 157.234 13.4141C157.099 13.1745 156.919 12.987 156.695 12.8516C156.471 12.7161 156.201 12.6484 155.883 12.6484C155.565 12.6484 155.294 12.7161 155.07 12.8516C154.852 12.987 154.672 13.1745 154.531 13.4141C154.396 13.6484 154.297 13.9193 154.234 14.2266C154.172 14.5286 154.141 14.8516 154.141 15.1953ZM165.852 17.1641C165.852 17.0026 165.805 16.8568 165.711 16.7266C165.617 16.5964 165.443 16.4766 165.188 16.3672C164.938 16.2526 164.576 16.1484 164.102 16.0547C163.674 15.9609 163.276 15.8438 162.906 15.7031C162.542 15.5573 162.224 15.3828 161.953 15.1797C161.688 14.9766 161.479 14.737 161.328 14.4609C161.177 14.1797 161.102 13.8594 161.102 13.5C161.102 13.1458 161.177 12.8125 161.328 12.5C161.484 12.1875 161.706 11.9115 161.992 11.6719C162.284 11.4271 162.638 11.237 163.055 11.1016C163.477 10.9609 163.951 10.8906 164.477 10.8906C165.211 10.8906 165.841 11.0078 166.367 11.2422C166.898 11.4766 167.305 11.7995 167.586 12.2109C167.872 12.6172 168.016 13.0807 168.016 13.6016H165.766C165.766 13.3828 165.719 13.1875 165.625 13.0156C165.536 12.8385 165.396 12.7005 165.203 12.6016C165.016 12.4974 164.771 12.4453 164.469 12.4453C164.219 12.4453 164.003 12.4896 163.82 12.5781C163.638 12.6615 163.497 12.776 163.398 12.9219C163.305 13.0625 163.258 13.2188 163.258 13.3906C163.258 13.5208 163.284 13.638 163.336 13.7422C163.393 13.8411 163.484 13.9323 163.609 14.0156C163.734 14.099 163.896 14.1771 164.094 14.25C164.297 14.3177 164.547 14.3802 164.844 14.4375C165.453 14.5625 165.997 14.7266 166.477 14.9297C166.956 15.1276 167.336 15.3984 167.617 15.7422C167.898 16.0807 168.039 16.526 168.039 17.0781C168.039 17.4531 167.956 17.7969 167.789 18.1094C167.622 18.4219 167.383 18.6953 167.07 18.9297C166.758 19.1589 166.383 19.3385 165.945 19.4688C165.513 19.5938 165.026 19.6562 164.484 19.6562C163.698 19.6562 163.031 19.5156 162.484 19.2344C161.943 18.9531 161.531 18.5964 161.25 18.1641C160.974 17.7266 160.836 17.2786 160.836 16.8203H162.969C162.979 17.1276 163.057 17.375 163.203 17.5625C163.354 17.75 163.544 17.8854 163.773 17.9688C164.008 18.0521 164.26 18.0938 164.531 18.0938C164.823 18.0938 165.065 18.0547 165.258 17.9766C165.451 17.8932 165.596 17.7839 165.695 17.6484C165.799 17.5078 165.852 17.3464 165.852 17.1641Z" fill="#2C68F4"/>
<defs>
<clipPath id="clip0_1_241">
<rect width="28" height="28" fill="white"/>
</clipPath>
</defs>
</svg>
