<svg width="28" height="28" viewBox="0 0 28 28" fill="none" xmlns="http://www.w3.org/2000/svg">
<g id="Icone hospeda" clip-path="url(#clip0_1_242)">
<path id="Vector" d="M13.9999 27.5037V16.1813L10.0281 18.0493V21.971C10.0281 21.971 8.61128 24.3594 6.30688 24.2599C4.00248 24.1604 3.89888 22.6797 3.97588 21.6226C4.05288 20.5656 5.03708 18.8361 7.89868 17.9283C10.7603 17.0205 14.9029 15.6273 14.9029 15.6273L14.3457 16.0132V21.3402C14.3457 22.4981 14.6117 23.6467 15.1675 24.6741C16.0159 26.2436 17.7225 27.9569 21.1315 27.9569C27.4245 27.9569 27.9999 22.4376 27.9999 21.7921V18.4622L24.2759 19.4695V21.2555C24.2759 21.7127 24.1793 22.1687 23.9665 22.5788C23.6137 23.2566 22.8675 24.0313 21.2953 24.0313C18.4995 24.0313 18.2531 21.9777 18.2531 21.0699V14.5729C18.2531 14.5729 24.3165 13.3087 26.4753 10.2882C28.6341 7.2676 28.2225 3.29354 26.3521 1.63936C24.4817 -0.0134759 20.5967 -0.649595 17.5951 0.832441C16.2609 1.49008 15.4587 2.56597 14.9799 3.55847C14.5011 4.55098 14.2855 5.60535 14.2855 6.68124V11.6532L18.2727 9.81746V6.26299C18.2727 6.26299 18.7249 3.63648 21.7265 3.63648C24.7281 3.63648 24.5629 8.1189 21.7671 9.24454C18.9713 10.3702 13.4427 12.1871 13.4427 12.1871L13.9999 11.7729V6.77942C13.9999 6.31947 13.9537 5.86222 13.8585 5.41169C13.4847 3.64589 12.1449 0.0416634 7.44088 0.0416634C3.61748 0.0416634 1.35648 2.21361 0.74048 2.98422L3.00148 5.84743C3.00148 5.84743 4.23488 3.6553 7.03068 3.6553C9.56048 3.6553 10.1135 6.59786 10.1135 7.24877V13.1527L7.13288 14.1398C7.13288 14.1398 0.0348798 15.6461 -0.000120172 22.2493C-0.0351202 28.8526 7.35268 27.9596 7.35268 27.9596C7.35268 27.9596 9.22448 27.7444 10.8919 26.561L11.3791 27.5468L13.9999 27.5037Z" fill="#2C68F4"/>
</g>
<defs>
<clipPath id="clip0_1_242">
<rect width="28" height="28" fill="white"/>
</clipPath>
</defs>
</svg>
