<svg width="16" height="17" viewBox="0 0 16 17" fill="none" xmlns="http://www.w3.org/2000/svg">
<g id="MapPin">
<g id="Vector">
<path fill-rule="evenodd" clip-rule="evenodd" d="M8 5.5C7.17157 5.5 6.5 6.17157 6.5 7C6.5 7.82843 7.17157 8.5 8 8.5C8.82843 8.5 9.5 7.82843 9.5 7C9.5 6.17157 8.82843 5.5 8 5.5ZM5.5 7C5.5 5.61929 6.61929 4.5 8 4.5C9.38071 4.5 10.5 5.61929 10.5 7C10.5 8.38071 9.38071 9.5 8 9.5C6.61929 9.5 5.5 8.38071 5.5 7Z" fill="#2C68F4"/>
<path fill-rule="evenodd" clip-rule="evenodd" d="M8 2.5C6.80653 2.5 5.66193 2.97411 4.81802 3.81802C3.97411 4.66193 3.5 5.80653 3.5 7C3.5 9.06997 4.65592 10.9548 5.8773 12.3594C6.48189 13.0547 7.08775 13.6152 7.54257 14.0018C7.72245 14.1547 7.87812 14.2799 8 14.375C8.12188 14.2799 8.27755 14.1547 8.45743 14.0018C8.91225 13.6152 9.51812 13.0547 10.1227 12.3594C11.3441 10.9548 12.5 9.06997 12.5 7C12.5 5.80653 12.0259 4.66193 11.182 3.81802C10.3381 2.97411 9.19347 2.5 8 2.5ZM8 15C7.71327 15.4096 7.71313 15.4095 7.71297 15.4094L7.71256 15.4091L7.71139 15.4083L7.70769 15.4057L7.69498 15.3966C7.68417 15.3889 7.66876 15.3778 7.64904 15.3634C7.60962 15.3347 7.55296 15.2927 7.48154 15.2381C7.33874 15.1289 7.13661 14.9692 6.89493 14.7638C6.41225 14.3535 5.76811 13.7578 5.1227 13.0156C3.84408 11.5452 2.5 9.43003 2.5 7C2.5 5.54131 3.07946 4.14236 4.11091 3.11091C5.14236 2.07946 6.54131 1.5 8 1.5C9.45869 1.5 10.8576 2.07946 11.8891 3.11091C12.9205 4.14236 13.5 5.54131 13.5 7C13.5 9.43003 12.1559 11.5452 10.8773 13.0156C10.2319 13.7578 9.58775 14.3535 9.10507 14.7638C8.86339 14.9692 8.66126 15.1289 8.51846 15.2381C8.44704 15.2927 8.39038 15.3347 8.35096 15.3634C8.33124 15.3778 8.31583 15.3889 8.30502 15.3966L8.29231 15.4057L8.28861 15.4083L8.28744 15.4091L8.28703 15.4094C8.28687 15.4095 8.28673 15.4096 8 15ZM8 15L8.28703 15.4094C8.11487 15.5299 7.88513 15.5299 7.71297 15.4094L8 15Z" fill="#2C68F4"/>
</g>
</g>
</svg>
