<svg width="14" height="14" viewBox="0 0 14 14" fill="none" xmlns="http://www.w3.org/2000/svg">
<g id="edit">
<path id="Vector" fill-rule="evenodd" clip-rule="evenodd" d="M12.2412 5.42938C12.3244 5.34625 12.39 5.25 12.4337 5.145C12.4775 5.04 12.5037 4.92188 12.5037 4.80813C12.5037 4.69438 12.4819 4.57625 12.4337 4.47125C12.39 4.36625 12.3244 4.27 12.2412 4.18688L9.80436 1.75C9.72123 1.66688 9.62498 1.60125 9.51998 1.5575C9.41498 1.51375 9.29686 1.4875 9.18311 1.4875C9.06936 1.4875 8.95123 1.50938 8.84623 1.5575C8.74123 1.60125 8.64498 1.66688 8.56186 1.75L1.89873 8.39563C1.73248 8.56188 1.74561 8.925 1.74561 8.925V11.3706C1.74561 11.6025 1.83748 11.8256 2.00373 11.9875C2.16998 12.1538 2.38873 12.2456 2.62061 12.2456H11.8081C12.0487 12.2456 12.2456 12.0488 12.2456 11.8081C12.2456 11.5675 12.0487 11.3706 11.8081 11.3706H6.29998L12.2412 5.42938ZM9.17873 2.36688L11.62 4.80813L10.4869 5.94125L8.04123 3.49563L9.16998 2.36688H9.17873ZM2.62061 8.925L7.43311 4.1125L9.87873 6.55813L5.06623 11.3706H2.62061V8.925Z" fill="#171D35"/>
</g>
</svg>
