<svg width="24" height="24" viewBox="0 0 24 24" fill="none" xmlns="http://www.w3.org/2000/svg">
<g id="Tag">
<g id="Vector">
<path fill-rule="evenodd" clip-rule="evenodd" d="M11.3589 1.69201C11.6005 1.64471 11.85 1.6576 12.0855 1.72954C12.3208 1.80143 12.5348 1.9301 12.7086 2.10421L22.4933 11.8889C22.6337 12.027 22.7453 12.1916 22.8218 12.3731C22.8988 12.5562 22.9385 12.7528 22.9385 12.9515C22.9385 13.1501 22.8988 13.3467 22.8218 13.5298C22.7453 13.7113 22.6337 13.8759 22.4933 14.014L14.014 22.4933C13.8759 22.6337 13.7113 22.7453 13.5298 22.8218C13.3467 22.8988 13.1501 22.9385 12.9515 22.9385C12.7528 22.9385 12.5562 22.8988 12.3731 22.8218C12.1916 22.7453 12.027 22.6337 11.8889 22.4933L2.10451 12.7089C1.93041 12.5351 1.80143 12.3208 1.72954 12.0855C1.6576 11.85 1.64471 11.6005 1.69201 11.3589L1.69253 11.3563L3.20191 3.79068C3.2612 3.4935 3.4935 3.2612 3.79068 3.20191L11.3563 1.69253L11.503 2.42804L11.3589 1.69201ZM11.6472 3.16406L4.57499 4.57499L3.16406 11.6472L3.16462 11.6477L12.9515 21.4346L21.4346 12.9515L11.6472 3.16406Z" fill="#171D35" fill-opacity="0.64"/>
<path d="M7.875 9C8.49632 9 9 8.49632 9 7.875C9 7.25368 8.49632 6.75 7.875 6.75C7.25368 6.75 6.75 7.25368 6.75 7.875C6.75 8.49632 7.25368 9 7.875 9Z" fill="#171D35" fill-opacity="0.64"/>
</g>
</g>
</svg>
